<svg width="1200" height="630" viewBox="0 0 1200 630" fill="none" xmlns="http://www.w3.org/2000/svg">
	<rect width="1200" height="630" fill="#FCF9F4"/>
	<circle cx="1040" cy="94" r="190" fill="#F3ECE3"/>
	<circle cx="110" cy="542" r="170" fill="#F3ECE3"/>
	<rect x="76" y="74" width="1048" height="482" rx="44" fill="#F3ECE3" stroke="#D1C4D3" stroke-width="4"/>
	<rect x="122" y="122" width="342" height="386" rx="30" fill="#FCF9F4" stroke="#E4C3C4" stroke-width="3"/>
	<text x="150" y="188" fill="#5F564F" font-family="Arial, Helvetica, sans-serif" font-size="58" font-weight="800">Smoothie</text>
	<text x="150" y="254" fill="#5F564F" font-family="Arial, Helvetica, sans-serif" font-size="58" font-weight="800">Mixer</text>
	<text x="152" y="312" fill="#766D66" font-family="Arial, Helvetica, sans-serif" font-size="26" font-weight="600">Build recipes around</text>
	<text x="152" y="348" fill="#766D66" font-family="Arial, Helvetica, sans-serif" font-size="26" font-weight="600">your nutrition goals.</text>
	<rect x="150" y="390" width="226" height="54" rx="27" fill="#EFD3C2"/>
	<text x="184" y="426" fill="#5F564F" font-family="Arial, Helvetica, sans-serif" font-size="22" font-weight="800">Goal tracking</text>
	<rect x="150" y="458" width="176" height="54" rx="27" fill="#CCD5E2"/>
	<text x="184" y="494" fill="#5F564F" font-family="Arial, Helvetica, sans-serif" font-size="22" font-weight="800">Saved mixes</text>
	<g transform="translate(560 98)">
		<polygon points="234,28 429,141 429,367 234,480 38,367 38,141" fill="#FCF9F4" stroke="#A8BBD1" stroke-width="8"/>
		<polygon points="234,118 351,186 351,322 234,390 116,322 116,186" stroke="#D0D9CA" stroke-width="4"/>
		<polygon points="234,208 273,231 273,277 234,300 194,277 194,231" stroke="#E4C3C4" stroke-width="4"/>
		<line x1="234" y1="28" x2="234" y2="480" stroke="#CCD5E2" stroke-width="3"/>
		<line x1="38" y1="141" x2="429" y2="367" stroke="#CCD5E2" stroke-width="3"/>
		<line x1="429" y1="141" x2="38" y2="367" stroke="#CCD5E2" stroke-width="3"/>
		<linearGradient id="shapeFill" x1="112" y1="96" x2="376" y2="390" gradientUnits="userSpaceOnUse">
			<stop offset="0" stop-color="#D0D9CA" stop-opacity="0.82"/>
			<stop offset="0.45" stop-color="#EFD3C2" stop-opacity="0.78"/>
			<stop offset="1" stop-color="#E4C3C4" stop-opacity="0.78"/>
		</linearGradient>
		<linearGradient id="shapeStroke" x1="114" y1="87" x2="389" y2="370" gradientUnits="userSpaceOnUse">
			<stop offset="0" stop-color="#74A26F"/>
			<stop offset="0.42" stop-color="#D88F4D"/>
			<stop offset="1" stop-color="#C84D54"/>
		</linearGradient>
		<polygon points="234,72 392,162 310,297 234,360 147,305 98,176" fill="url(#shapeFill)" stroke="url(#shapeStroke)" stroke-width="10" stroke-linejoin="round"/>
		<circle cx="234" cy="72" r="14" fill="#74A26F"/>
		<circle cx="392" cy="162" r="14" fill="#C84D54"/>
		<circle cx="310" cy="297" r="14" fill="#D88F4D"/>
		<circle cx="234" cy="360" r="14" fill="#D88F4D"/>
		<circle cx="147" cy="305" r="14" fill="#E0BC57"/>
		<circle cx="98" cy="176" r="14" fill="#74A26F"/>
	</g>
	<text x="825" y="538" text-anchor="middle" fill="#766D66" font-family="Arial, Helvetica, sans-serif" font-size="24" font-weight="700">Compare ingredients • Track goals • Save blends</text>
</svg>
